<svg width="120" height="24" viewBox="0 0 120 24" fill="none" xmlns="http://www.w3.org/2000/svg">
  <path d="M24.9231 0H7.07692C3.16923 0 0 3.16923 0 7.07692V16.9231C0 20.8308 3.16923 24 7.07692 24H24.9231C28.8308 24 32 20.8308 32 16.9231V7.07692C32 3.16923 28.8308 0 24.9231 0Z" fill="#ED1C24"/>
  <path d="M88.9231 0H71.0769C67.1692 0 64 3.16923 64 7.07692V16.9231C64 20.8308 67.1692 24 71.0769 24H88.9231C92.8308 24 96 20.8308 96 16.9231V7.07692C96 3.16923 92.8308 0 88.9231 0Z" fill="#ED1C24"/>
  <path d="M120 12C120 18.6274 114.627 24 108 24C101.373 24 96 18.6274 96 12C96 5.37258 101.373 0 108 0C114.627 0 120 5.37258 120 12Z" fill="#ED1C24"/>
  <path d="M56.9231 0H39.0769C35.1692 0 32 3.16923 32 7.07692V16.9231C32 20.8308 35.1692 24 39.0769 24H56.9231C60.8308 24 64 20.8308 64 16.9231V7.07692C64 3.16923 60.8308 0 56.9231 0Z" fill="#ED1C24"/>
</svg> 