<svg width="120" height="24" viewBox="0 0 120 24" fill="none" xmlns="http://www.w3.org/2000/svg">
  <path d="M45.5127 7.77778H41.7671V16.2222H45.5127C47.7468 16.2222 49.2582 14.7111 49.2582 12C49.2582 9.28889 47.7468 7.77778 45.5127 7.77778Z" fill="#0071C5"/>
  <path d="M120 12C120 18.6274 114.627 24 108 24C101.373 24 96 18.6274 96 12C96 5.37258 101.373 0 108 0C114.627 0 120 5.37258 120 12Z" fill="#0071C5"/>
  <path d="M24 0H12C8.688 0 6 2.688 6 6V18C6 21.312 8.688 24 12 24H24C27.312 24 30 21.312 30 18V6C30 2.688 27.312 0 24 0Z" fill="#0071C5"/>
  <path d="M84 7.2H72V16.8H84M84 0H72C68.688 0 66 2.688 66 6V18C66 21.312 68.688 24 72 24H84C87.312 24 90 21.312 90 18V6C90 2.688 87.312 0 84 0Z" fill="#0071C5"/>
</svg> 