<svg width="120" height="24" viewBox="0 0 120 24" fill="none" xmlns="http://www.w3.org/2000/svg">
  <path d="M24 0H12C5.376 0 0 5.376 0 12C0 18.624 5.376 24 12 24H24C30.624 24 36 18.624 36 12C36 5.376 30.624 0 24 0ZM24 20H12C7.584 20 4 16.416 4 12C4 7.584 7.584 4 12 4H24C28.416 4 32 7.584 32 12C32 16.416 28.416 20 24 20Z" fill="#6B46C1"/>
  <path d="M60 0H48C41.376 0 36 5.376 36 12C36 18.624 41.376 24 48 24H60C66.624 24 72 18.624 72 12C72 5.376 66.624 0 60 0ZM60 20H48C43.584 20 40 16.416 40 12C40 7.584 43.584 4 48 4H60C64.416 4 68 7.584 68 12C68 16.416 64.416 20 60 20Z" fill="#6B46C1"/>
  <path d="M96 0H84C77.376 0 72 5.376 72 12C72 18.624 77.376 24 84 24H96C102.624 24 108 18.624 108 12C108 5.376 102.624 0 96 0ZM96 20H84C79.584 20 76 16.416 76 12C76 7.584 79.584 4 84 4H96C100.416 4 104 7.584 104 12C104 16.416 100.416 20 96 20Z" fill="#6B46C1"/>
  <path d="M120 12C120 18.6274 114.627 24 108 24C101.373 24 96 18.6274 96 12C96 5.37258 101.373 0 108 0C114.627 0 120 5.37258 120 12Z" fill="#6B46C1"/>
</svg> 