<svg width="120" height="24" viewBox="0 0 120 24" fill="none" xmlns="http://www.w3.org/2000/svg">
  <path d="M60 0C55.0533 0 51.04 4.47733 51.04 10C51.04 15.5227 55.0533 20 60 20C64.9467 20 68.96 15.5227 68.96 10C68.96 4.47733 64.9467 0 60 0ZM60 16C57.2533 16 55.04 13.3093 55.04 10C55.04 6.69067 57.2533 4 60 4C62.7467 4 64.96 6.69067 64.96 10C64.96 13.3093 62.7467 16 60 16Z" fill="#000000"/>
  <path d="M30 0H12C5.376 0 0 5.376 0 12C0 18.624 5.376 24 12 24H30C36.624 24 42 18.624 42 12C42 5.376 36.624 0 30 0ZM30 20H12C7.584 20 4 16.416 4 12C4 7.584 7.584 4 12 4H30C34.416 4 38 7.584 38 12C38 16.416 34.416 20 30 20Z" fill="#000000"/>
  <path d="M108 0H90C83.376 0 78 5.376 78 12C78 18.624 83.376 24 90 24H108C114.624 24 120 18.624 120 12C120 5.376 114.624 0 108 0ZM108 20H90C85.584 20 82 16.416 82 12C82 7.584 85.584 4 90 4H108C112.416 4 116 7.584 116 12C116 16.416 112.416 20 108 20Z" fill="#000000"/>
</svg> 