<svg width="120" height="24" viewBox="0 0 120 24" fill="none" xmlns="http://www.w3.org/2000/svg">
  <path d="M60 12C60 18.6274 54.6274 24 48 24C41.3726 24 36 18.6274 36 12C36 5.37258 41.3726 0 48 0C54.6274 0 60 5.37258 60 12Z" fill="#E60000"/>
  <path d="M84 7.2H72V16.8H84M84 0H72C68.688 0 66 2.688 66 6V18C66 21.312 68.688 24 72 24H84C87.312 24 90 21.312 90 18V6C90 2.688 87.312 0 84 0Z" fill="#333333"/>
  <path d="M114 0H102C98.688 0 96 2.688 96 6V18C96 21.312 98.688 24 102 24H114C117.312 24 120 21.312 120 18V6C120 2.688 117.312 0 114 0Z" fill="#333333"/>
  <path d="M30 0H18C14.688 0 12 2.688 12 6V18C12 21.312 14.688 24 18 24H30C33.312 24 36 21.312 36 18V6C36 2.688 33.312 0 30 0Z" fill="#333333"/>
  <path d="M24 0H12C8.688 0 6 2.688 6 6V18C6 21.312 8.688 24 12 24H24C27.312 24 30 21.312 30 18V6C30 2.688 27.312 0 24 0Z" fill="#333333"/>
</svg> 